<?xml version="1.0" encoding="utf-8"?>
<!-- Generator: Adobe Illustrator 23.0.1, SVG Export Plug-In . SVG Version: 6.00 Build 0)  -->
<svg version="1.1" xmlns="http://www.w3.org/2000/svg" xmlns:xlink="http://www.w3.org/1999/xlink" x="0px" y="0px"
	 viewBox="0 0 111.47 111.47" style="enable-background:new 0 0 111.47 111.47;" xml:space="preserve">
<style type="text/css">
	.st0{fill:url(#SVGID_1_);}
	.st1{fill:#E1FA05;}
	.st2{clip-path:url(#SVGID_7_);}
	.st3{fill:url(#SVGID_8_);}
	.st4{fill:none;stroke:#000000;stroke-miterlimit:10;}
	.st5{fill:#FFFFFF;}
</style>
<g id="bckg">
</g>
<g id="guides">
</g>
<g id="photo">
</g>
<g id="art">
</g>
<g id="type">
</g>
<g id="ui">
	<g>
		<g>
			<g>
				<path d="M55.73,27.87c-15.25,0-27.62,12.48-27.62,27.87S40.48,83.6,55.73,83.6s27.62-12.48,27.62-27.87S70.98,27.87,55.73,27.87
					z M55.73,73.15c-9.51,0-17.26-7.82-17.26-17.42c0-9.61,7.75-17.42,17.26-17.42s17.26,7.81,17.26,17.42
					C72.99,65.33,65.25,73.15,55.73,73.15z"/>
			</g>
		</g>
		<g>
			<g>
				<path d="M86.21,20.46c2.47,0,4.47,2.02,4.47,4.51c0,2.49-2,4.51-4.47,4.51c-2.47,0-4.47-2.02-4.47-4.51
					C81.74,22.48,83.74,20.46,86.21,20.46z"/>
			</g>
		</g>
		<path d="M100.88,10.59v90.29H10.59V10.59H100.88 M111.47,0H0v111.47h111.47V0L111.47,0z"/>
	</g>
</g>
</svg>
