<?xml version="1.0" encoding="utf-8"?>
<!-- Generator: Adobe Illustrator 23.0.1, SVG Export Plug-In . SVG Version: 6.00 Build 0)  -->
<svg version="1.1" id="Layer_1" xmlns="http://www.w3.org/2000/svg" xmlns:xlink="http://www.w3.org/1999/xlink" x="0px" y="0px"
	 viewBox="0 0 619.86 57.45" style="enable-background:new 0 0 619.86 57.45;" xml:space="preserve">
<style type="text/css">
	.st0{fill:#F5164B;}
	.st1{fill:#FFFFFF;}
	.st2{fill:#E1FA05;}
</style>
<g>
	<path d="M149.15,9.33c-1.95-2.48-4.45-4.44-7.53-5.88c-3.07-1.43-6.71-2.15-10.91-2.15h-22.73v54.84h22.73
		c4.2,0,7.83-0.72,10.91-2.15c3.07-1.43,5.58-3.39,7.53-5.88c1.95-2.48,3.39-5.39,4.34-8.72s1.42-6.89,1.42-10.68
		c0-3.79-0.47-7.35-1.42-10.67S151.1,11.82,149.15,9.33z M144.58,36.44c-0.49,2.38-1.41,4.45-2.77,6.22s-3.23,3.15-5.61,4.15
		c-2.38,1-5.44,1.5-9.18,1.5h-9.45V9.14h9.45c3.74,0,6.8,0.5,9.18,1.5c2.38,1,4.25,2.38,5.61,4.15c1.36,1.77,2.28,3.84,2.77,6.22
		c0.49,2.38,0.73,4.95,0.73,7.72S145.07,34.06,144.58,36.44z"/>
	<polygon points="198.3,41.7 198.15,41.7 173.11,1.31 162.97,1.31 162.97,56.14 172.11,56.14 172.11,15.82 172.34,15.82 
		197.3,56.14 207.44,56.14 207.44,1.31 198.3,1.31 	"/>
	<path d="M380.84,31.91c-0.9-1.25-2.01-2.37-3.34-3.34c-1.33-0.97-2.89-1.74-4.69-2.3c-0.72-0.2-1.91-0.52-3.57-0.96
		c-1.66-0.43-3.37-0.88-5.11-1.34c-1.74-0.46-3.32-0.88-4.72-1.27c-1.41-0.38-2.21-0.6-2.42-0.65c-1.95-0.56-3.52-1.39-4.72-2.5
		c-1.2-1.1-1.8-2.62-1.8-4.57c0-1.38,0.32-2.53,0.96-3.46c0.64-0.92,1.45-1.65,2.42-2.19c0.97-0.54,2.05-0.92,3.23-1.15
		s2.33-0.35,3.46-0.35c3.33,0,6.07,0.73,8.22,2.19c2.15,1.46,3.35,3.96,3.61,7.49h9.6c0-2.87-0.56-5.39-1.69-7.56
		c-1.13-2.18-2.65-4.01-4.57-5.49c-1.92-1.48-4.15-2.6-6.68-3.34c-2.54-0.74-5.24-1.11-8.1-1.11c-2.46,0-4.89,0.32-7.3,0.96
		c-2.41,0.64-4.56,1.63-6.45,2.96c-1.89,1.33-3.42,3.01-4.57,5.03c-1.15,2.02-1.73,4.42-1.73,7.18c0,1.43,0.19,2.84,0.58,4.22
		c0.35,1.27,0.94,2.47,1.75,3.61H227.33V9.6h29.88V1.31h-39.48v54.84h40.01v-8.29h-30.41V31.8H357.2c1.6,0.01,3.02,0.16,4.26,0.45
		c0.04,0.01,0.95,0.24,1.1,0.27c2.58,0.64,4.85,1.32,6.8,2.04c1.13,0.41,2.16,1.11,3.11,2.11c0.95,1,1.42,2.55,1.42,4.65
		c0,1.02-0.21,2.04-0.61,3.03c-0.41,1-1.08,1.88-2,2.65c-0.92,0.77-2.13,1.4-3.61,1.88c-1.49,0.49-3.28,0.73-5.38,0.73
		c-1.95,0-3.75-0.22-5.41-0.65c-1.67-0.43-3.14-1.13-4.42-2.07c-1.28-0.95-2.28-2.16-3-3.65c-0.72-1.48-1.08-3.28-1.08-5.38h-9.6
		c0.05,3.38,0.69,6.31,1.92,8.79c1.23,2.48,2.87,4.52,4.92,6.11c2.05,1.59,4.45,2.76,7.22,3.53c2.76,0.77,5.71,1.15,8.83,1.15
		c2.71,0,5.38-0.32,7.99-0.96s4.94-1.65,6.99-3.03c2.05-1.38,3.7-3.16,4.95-5.34c1.25-2.18,1.88-4.8,1.88-7.87
		c0-1.43-0.22-2.87-0.65-4.3C382.4,34.51,381.73,33.17,380.84,31.91z"/>
	<polygon points="387.56,9.6 404.91,9.6 404.91,56.14 414.51,56.14 414.51,9.6 431.95,9.6 431.95,1.31 387.56,1.31 	"/>
	<path d="M476.03,33.25c0,1.84-0.09,3.71-0.27,5.61c-0.18,1.89-0.69,3.6-1.54,5.11c-0.84,1.51-2.12,2.75-3.84,3.72
		c-1.72,0.97-4.13,1.46-7.26,1.46s-5.54-0.49-7.26-1.46c-1.72-0.97-3-2.21-3.84-3.72c-0.84-1.51-1.36-3.21-1.54-5.11
		c-0.18-1.89-0.27-3.76-0.27-5.61V1.31h-9.6v35.1c0,3.53,0.54,6.6,1.61,9.22s2.6,4.8,4.57,6.57c1.97,1.77,4.34,3.08,7.1,3.96
		s5.84,1.31,9.22,1.31c3.38,0,6.45-0.44,9.22-1.31c2.76-0.87,5.13-2.19,7.1-3.96c1.97-1.77,3.49-3.96,4.57-6.57s1.61-5.68,1.61-9.22
		V1.31h-9.6V33.25z"/>
	<path d="M534.77,9.33c-1.95-2.48-4.45-4.44-7.53-5.88c-3.07-1.43-6.71-2.15-10.91-2.15h-22.73v54.84h22.73
		c4.2,0,7.83-0.72,10.91-2.15c3.07-1.43,5.58-3.39,7.53-5.88c1.95-2.48,3.39-5.39,4.34-8.72s1.42-6.89,1.42-10.68
		c0-3.79-0.47-7.35-1.42-10.67S536.72,11.82,534.77,9.33z M530.21,36.44c-0.49,2.38-1.41,4.45-2.77,6.22s-3.23,3.15-5.61,4.15
		c-2.38,1-5.44,1.5-9.18,1.5h-9.45V9.14h9.45c3.74,0,6.8,0.5,9.18,1.5c2.38,1,4.25,2.38,5.61,4.15c1.36,1.77,2.28,3.84,2.77,6.22
		c0.49,2.38,0.73,4.95,0.73,7.72S530.69,34.06,530.21,36.44z"/>
	<rect x="548.98" y="1.31" width="9.6" height="54.84"/>
	<path d="M618.06,17.67c-1.2-3.48-2.93-6.53-5.18-9.14c-2.25-2.61-5-4.68-8.26-6.22C601.37,0.77,597.69,0,593.6,0
		c-4.1,0-7.77,0.77-11.02,2.3c-3.25,1.54-6,3.61-8.26,6.22c-2.25,2.61-3.98,5.66-5.18,9.14c-1.2,3.48-1.81,7.17-1.81,11.06
		c0,3.94,0.6,7.66,1.81,11.14c1.2,3.48,2.93,6.53,5.18,9.14c2.25,2.61,5,4.67,8.26,6.18c3.25,1.51,6.92,2.27,11.02,2.27
		c4.1,0,7.77-0.76,11.02-2.27c3.25-1.51,6-3.57,8.26-6.18c2.25-2.61,3.98-5.66,5.18-9.14c1.2-3.48,1.8-7.19,1.8-11.14
		C619.86,24.83,619.26,21.15,618.06,17.67z M609.3,36.4c-0.64,2.51-1.63,4.75-2.96,6.72c-1.33,1.97-3.06,3.55-5.18,4.72
		c-2.12,1.18-4.65,1.77-7.56,1.77c-2.92,0-5.44-0.59-7.57-1.77c-2.12-1.18-3.85-2.75-5.18-4.72c-1.33-1.97-2.32-4.21-2.96-6.72
		c-0.64-2.51-0.96-5.07-0.96-7.68s0.32-5.17,0.96-7.68c0.64-2.51,1.62-4.75,2.96-6.72c1.33-1.97,3.06-3.54,5.18-4.72
		c2.12-1.18,4.65-1.77,7.57-1.77c2.92,0,5.44,0.59,7.56,1.77c2.12,1.18,3.85,2.75,5.18,4.72c1.33,1.97,2.32,4.21,2.96,6.72
		c0.64,2.51,0.96,5.07,0.96,7.68S609.94,33.9,609.3,36.4z"/>
	<path d="M69.51,1.31L48.46,56.14h9.91l8.61-24.35h15.04l8.53,24.35h10.29L79.72,1.31H69.51z M69.75,23.96l4.67-13.21h0.23
		l4.63,13.21H69.75z"/>
	<polygon points="15.44,31.8 30.81,31.8 30.81,23.96 15.44,23.96 15.44,1.31 5.84,1.31 5.84,23.96 0,23.96 0,31.8 5.84,31.8 
		5.84,56.14 43.32,56.14 43.32,47.85 15.44,47.85 	"/>
</g>
</svg>
